<?xml version="1.0" encoding="UTF-8" standalone="no"?>
<!DOCTYPE svg PUBLIC "-//W3C//DTD SVG 1.1//EN" "http://www.w3.org/Graphics/SVG/1.1/DTD/svg11.dtd">
<svg width="100%" height="100%" viewBox="0 0 834 226" version="1.1" xmlns="http://www.w3.org/2000/svg" xmlns:xlink="http://www.w3.org/1999/xlink" xml:space="preserve" xmlns:serif="http://www.serif.com/" style="fill-rule:evenodd;clip-rule:evenodd;stroke-linejoin:round;stroke-miterlimit:2;">
    <g id="Artboard1" transform="matrix(1.01661,0,0,0.627615,0,0)">
        <rect x="0" y="0" width="820" height="360" style="fill:none;"/>
        <g transform="matrix(4.6398,0,0,7.51553,-30.0011,-3.35118)">
            <circle cx="105.954" cy="7.465" r="4.15" style="fill:url(#_Linear1);"/>
        </g>
        <g transform="matrix(4.6398,0,0,7.51553,-28.2144,1.04548)">
            <path d="M97.133,4.941C99.372,9.24 100.641,19.584 103.337,20.006C104.609,20.206 112.544,9.781 119.786,3.188C110.881,17.06 106.11,31.41 103.53,44.893C95.862,33.623 95.175,19.273 97.133,4.941Z" style="fill:url(#_Linear2);"/>
        </g>
        <g transform="matrix(0.983662,0,0,1.59333,0,0)">
            <path d="M61.05,191.882C48.665,191.882 38.179,189.54 29.593,184.857C21.007,180.173 14.476,173.617 10.001,165.186C5.526,156.756 3.288,146.869 3.288,135.525C3.288,123.869 5.604,113.773 10.235,105.239C14.866,96.705 21.553,90.096 30.295,85.413C39.038,80.729 49.549,78.388 61.83,78.388C69.532,78.388 76.843,79.48 83.764,81.666C90.685,83.852 96.331,86.766 100.702,90.408L92.897,109.298C88.109,105.759 83.218,103.236 78.222,101.727C73.227,100.217 67.815,99.463 61.986,99.463C50.85,99.463 42.498,102.559 36.93,108.752C31.362,114.944 28.578,123.869 28.578,135.525C28.578,147.285 31.414,156.184 37.086,162.22C42.759,168.257 51.163,171.275 62.299,171.275C68.231,171.275 74.475,170.338 81.032,168.465L81.032,146.921L57.303,146.921L57.303,129.437L101.015,129.437L101.015,183.452C95.603,186.158 89.358,188.239 82.281,189.696C75.204,191.153 68.127,191.882 61.05,191.882ZM620.042,191.882L620.042,81.822L695.444,81.822L695.444,100.712L643.147,100.712L643.147,126.47L692.01,126.47L692.01,145.516L643.147,145.516L643.147,172.992L695.444,172.992L695.444,191.882L620.042,191.882ZM511.387,191.882L511.387,81.822L561.656,81.822C573.937,81.822 583.407,84.788 590.068,90.721C596.729,96.653 600.059,104.927 600.059,115.543C600.059,123.764 597.952,130.607 593.737,136.071C589.522,141.535 583.511,145.256 575.706,147.233C581.222,148.899 585.749,152.906 589.288,159.254L607.084,191.882L580.389,191.882L561.343,156.756C559.782,153.946 557.857,151.995 555.567,150.902C553.278,149.809 550.572,149.263 547.449,149.263L535.585,149.263L535.585,191.882L511.387,191.882ZM714.49,191.882L714.49,81.822L757.577,81.822C776.311,81.822 790.829,86.584 801.133,96.106C811.436,105.629 816.588,119.185 816.588,136.774C816.588,154.363 811.436,167.944 801.133,177.519C790.829,187.094 776.311,191.882 757.577,191.882L714.49,191.882ZM122.402,190.164L122.402,80.105L197.805,80.105L197.805,98.995L145.507,98.995L145.507,124.753L194.37,124.753L194.37,143.799L145.507,143.799L145.507,171.275L197.805,171.275L197.805,190.164L122.402,190.164ZM243.077,190.164L243.077,100.087L206.703,100.087L206.703,80.105L303.649,80.105L303.649,100.087L267.275,100.087L267.275,190.164L243.077,190.164ZM315.514,190.164L315.514,80.105L339.711,80.105L339.711,124.285L390.916,124.285L390.916,80.105L415.114,80.105L415.114,190.164L390.916,190.164L390.916,144.423L339.711,144.423L339.711,190.164L315.514,190.164ZM738.688,172.055L756.172,172.055C779.589,172.055 791.298,160.295 791.298,136.774C791.298,113.357 779.589,101.648 756.172,101.648L738.688,101.648L738.688,172.055ZM535.585,131.778L557.284,131.778C570.294,131.778 576.799,126.574 576.799,116.167C576.799,105.864 570.294,100.712 557.284,100.712L535.585,100.712L535.585,131.778Z" style="fill:url(#_Linear3);"/>
        </g>
    </g>
    <defs>
        <linearGradient id="_Linear1" x1="0" y1="0" x2="1" y2="0.421605" gradientUnits="userSpaceOnUse" gradientTransform="matrix(3.75608,0.491509,-0.869158,2.12407,101.841,6.97306)"><stop offset="0" style="stop-color:rgb(58,128,249);stop-opacity:1"/><stop offset="1" style="stop-color:rgb(0,71,195);stop-opacity:1"/></linearGradient>
        <linearGradient id="_Linear2" x1="0" y1="0" x2="1" y2="0" gradientUnits="userSpaceOnUse" gradientTransform="matrix(10.6718,2.46946,-2.46946,10.6718,96.3085,21.5714)"><stop offset="0" style="stop-color:rgb(58,128,249);stop-opacity:1"/><stop offset="1" style="stop-color:rgb(0,71,195);stop-opacity:1"/></linearGradient>
        <linearGradient id="_Linear3" x1="0" y1="0" x2="1" y2="0" gradientUnits="userSpaceOnUse" gradientTransform="matrix(163.926,-0.530683,0.530683,163.926,6.57593,29.5)"><stop offset="0" style="stop-color:rgb(58,128,249);stop-opacity:1"/><stop offset="1" style="stop-color:rgb(58,22,169);stop-opacity:1"/></linearGradient>
    </defs>
</svg>
